<svg width="54" height="68" viewBox="0 0 54 68" fill="none" xmlns="http://www.w3.org/2000/svg">
<path fill-rule="evenodd" clip-rule="evenodd" d="M41.7111 48.799C48.9076 44.0442 53.6567 35.871 53.6567 26.5862C53.6567 11.903 41.7799 0 27.1291 0C12.4784 0 0.601562 11.903 0.601562 26.5862C0.601562 35.7362 5.21375 43.8066 12.2353 48.5897L27.0263 67.1583L41.7111 48.799Z" fill="#7EB6D3"/>
<ellipse cx="27.4534" cy="26.7322" rx="21.8616" ry="21.9099" fill="white"/>
<path fill-rule="evenodd" clip-rule="evenodd" d="M30.7167 10.0851C31.1172 10.0851 31.4418 10.4105 31.4418 10.8118V18.4491C31.9095 18.4491 32.3591 18.63 32.6969 18.9542C33.0346 19.2784 33.2344 19.7209 33.2545 20.1891L33.2565 20.2671V24.2671C33.2533 24.5529 33.3621 24.8285 33.5596 25.0346C33.7571 25.2408 34.0274 25.361 34.3124 25.3695C34.5974 25.3779 34.8743 25.274 35.0836 25.0799C35.293 24.8859 35.4179 24.6172 35.4316 24.3318L35.4336 24.2671V17.6758C35.122 17.5951 34.846 17.413 34.6489 17.158C34.4518 16.9031 34.3448 16.5897 34.3447 16.2671V15.1758H37.2476V16.2665C37.2476 16.9445 36.7853 17.5138 36.1594 17.6751V24.2665C36.1621 24.7436 35.9776 25.2026 35.6457 25.5446C35.3137 25.8866 34.8609 26.0841 34.385 26.0946C33.909 26.105 33.4481 25.9275 33.1016 25.6003C32.755 25.2731 32.5507 24.8226 32.5327 24.3458L32.5307 24.2665V20.2665C32.5307 19.6645 32.0431 19.1758 31.4425 19.1758V27.5391C31.4426 27.6347 31.4238 27.7293 31.3874 27.8176C31.351 27.9059 31.2975 27.9861 31.2301 28.0536C31.1627 28.1212 31.0827 28.1748 30.9946 28.2113C30.9065 28.2478 30.8121 28.2666 30.7167 28.2665H23.4594C23.2671 28.2665 23.0827 28.1899 22.9467 28.0536C22.8108 27.9174 22.7344 27.7325 22.7344 27.5398V10.8118C22.7344 10.4098 23.059 10.0845 23.4594 10.0845H30.7167V10.0851ZM29.991 11.1758H24.1858C23.9996 11.1758 23.8466 11.3158 23.8253 11.4971L23.8226 11.5391V17.3578C23.8226 17.5445 23.9623 17.6978 24.1433 17.7191L24.1858 17.7211H29.991C30.1773 17.7211 30.3303 17.5811 30.3515 17.3998L30.3535 17.3578V11.5391C30.3535 11.4914 30.3442 11.4442 30.3259 11.4001C30.3077 11.356 30.281 11.316 30.2474 11.2822C30.2137 11.2485 30.1737 11.2217 30.1297 11.2035C30.0858 11.1852 30.0386 11.1758 29.991 11.1758ZM28.503 11.9511C28.5336 11.9831 28.5429 12.0311 28.5256 12.0718L27.5364 14.4485H28.1551C28.1775 14.4484 28.1993 14.4551 28.2179 14.4676C28.2365 14.4802 28.2508 14.498 28.2592 14.5189C28.2675 14.5397 28.2694 14.5626 28.2645 14.5845C28.2597 14.6064 28.2485 14.6264 28.2322 14.6418L25.8322 16.9491C25.8137 16.9672 25.7895 16.9784 25.7638 16.9806C25.738 16.9829 25.7123 16.9761 25.691 16.9615C25.6696 16.9469 25.654 16.9253 25.6468 16.9004C25.6395 16.8756 25.6411 16.849 25.6513 16.8251L26.6397 14.4485H26.0218C25.9993 14.4487 25.9773 14.4421 25.9587 14.4296C25.94 14.4171 25.9255 14.3992 25.9171 14.3784C25.9087 14.3575 25.9068 14.3346 25.9116 14.3126C25.9164 14.2906 25.9276 14.2706 25.9439 14.2551L28.3446 11.9478C28.3552 11.9376 28.3678 11.9296 28.3815 11.9242C28.3952 11.9188 28.4098 11.9162 28.4245 11.9165C28.4392 11.9168 28.4537 11.92 28.4672 11.926C28.4806 11.9319 28.4928 11.9405 28.503 11.9511ZM34.98 13.7211C35.0522 13.7213 35.1214 13.7502 35.1724 13.8014C35.2234 13.8527 35.252 13.9221 35.252 13.9945V14.8125H34.7079V13.9938C34.7081 13.9215 34.7368 13.8523 34.7878 13.8012C34.8388 13.7501 34.9079 13.7213 34.98 13.7211ZM36.6124 13.7211C36.6847 13.7211 36.7541 13.7499 36.8052 13.8012C36.8564 13.8525 36.8851 13.922 36.8851 13.9945V14.8125H36.3403V13.9938C36.3405 13.9214 36.3693 13.8521 36.4204 13.801C36.4715 13.7498 36.5408 13.7211 36.613 13.7211H36.6124Z" fill="#7EB6D3"/>
<path d="M30.7949 39.0562H29.4929V41.1982H27.7569V39.0562H23.3049V37.7402L27.7989 31.1742H29.4929V37.6142H30.7949V39.0562ZM27.7569 35.3742C27.7569 35.1782 27.7569 34.9776 27.7569 34.7722C27.7662 34.5576 27.7756 34.3476 27.7849 34.1422C27.7942 33.9369 27.8036 33.7502 27.8129 33.5822C27.8222 33.4142 27.8316 33.2836 27.8409 33.1902H27.7849C27.7009 33.3676 27.6076 33.5542 27.5049 33.7502C27.4116 33.9369 27.3042 34.1142 27.1829 34.2822L24.9149 37.6142H27.7569V35.3742Z" fill="#7EB6D3"/>
</svg>
